<?xml version="1.0" encoding="UTF-8" standalone="no"?>
<!-- Created with Inkscape (http://www.inkscape.org/) -->

<svg
   xmlns:dc="http://purl.org/dc/elements/1.1/"
   xmlns:cc="http://creativecommons.org/ns#"
   xmlns:rdf="http://www.w3.org/1999/02/22-rdf-syntax-ns#"
   xmlns:svg="http://www.w3.org/2000/svg"
   xmlns="http://www.w3.org/2000/svg"
   xmlns:sodipodi="http://sodipodi.sourceforge.net/DTD/sodipodi-0.dtd"
   xmlns:inkscape="http://www.inkscape.org/namespaces/inkscape"
   width="50.099998mm"
   height="50.099998mm"
   viewBox="0 0 50.099998 50.099998"
   version="1.1"
   id="svg8"
   inkscape:version="0.92.4 (5da689c313, 2019-01-14)"
   sodipodi:docname="back.svg"
   inkscape:export-filename="C:\Users\jakub\Pictures\bitmap.png"
   inkscape:export-xdpi="32.447105"
   inkscape:export-ydpi="32.447105">
  <defs
     id="defs2" />
  <sodipodi:namedview
     id="base"
     pagecolor="#ffffff"
     bordercolor="#666666"
     borderopacity="1.0"
     inkscape:pageopacity="0.0"
     inkscape:pageshadow="2"
     inkscape:zoom="1.979899"
     inkscape:cx="119.99534"
     inkscape:cy="42.661555"
     inkscape:document-units="mm"
     inkscape:current-layer="layer1"
     showgrid="false"
     showguides="true"
     inkscape:guide-bbox="true"
     inkscape:pagecheckerboard="true"
     fit-margin-top="0"
     fit-margin-left="0"
     fit-margin-right="0"
     fit-margin-bottom="0"
     inkscape:window-width="1920"
     inkscape:window-height="1017"
     inkscape:window-x="-8"
     inkscape:window-y="-8"
     inkscape:window-maximized="1"
     inkscape:snap-bbox="true"
     inkscape:bbox-paths="true">
    <sodipodi:guide
       position="50.05,-94.97976"
       orientation="1,0"
       id="guide815"
       inkscape:locked="false"
       inkscape:label=""
       inkscape:color="rgb(0,0,255)" />
    <sodipodi:guide
       position="24.618452,0.049999344"
       orientation="0,1"
       id="guide817"
       inkscape:locked="false"
       inkscape:label=""
       inkscape:color="rgb(0,0,255)" />
    <sodipodi:guide
       position="25.05,13.978669"
       orientation="1,0"
       id="guide819"
       inkscape:locked="false"
       inkscape:label=""
       inkscape:color="rgb(0,0,255)" />
    <sodipodi:guide
       position="5.66266,25.049999"
       orientation="0,1"
       id="guide821"
       inkscape:locked="false"
       inkscape:label=""
       inkscape:color="rgb(0,0,255)" />
    <sodipodi:guide
       position="-3.9590428,50.049999"
       orientation="0,1"
       id="guide823"
       inkscape:locked="false"
       inkscape:label=""
       inkscape:color="rgb(0,0,255)" />
    <sodipodi:guide
       position="0.05,25.050009"
       orientation="1,0"
       id="guide825"
       inkscape:locked="false"
       inkscape:label=""
       inkscape:color="rgb(0,0,255)" />
  </sodipodi:namedview>
  <metadata
     id="metadata5">
    <rdf:RDF>
      <cc:Work
         rdf:about="">
        <dc:format>image/svg+xml</dc:format>
        <dc:type
           rdf:resource="http://purl.org/dc/dcmitype/StillImage" />
        <dc:title />
      </cc:Work>
    </rdf:RDF>
  </metadata>
  <g
     inkscape:label="Layer 1"
     inkscape:groupmode="layer"
     id="layer1"
     transform="translate(0.05,3.05)">
    <path
       style="opacity:1;fill:#ff7701;fill-opacity:0.8627451;stroke:none;stroke-width:0.21506929;stroke-linecap:butt;stroke-linejoin:miter;stroke-miterlimit:4;stroke-dasharray:none;stroke-opacity:1"
       d="M 25,-3.0000008 A 24.999984,28.909288 0 0 0 12.492249,22.000002 24.999984,28.909288 0 0 0 24.983473,46.999999 24.999984,28.909288 0 0 0 37.492249,22.000002 24.999984,28.909288 0 0 0 25,-3.0000008 Z"
       id="path831"
       inkscape:connector-curvature="0" />
    <path
       inkscape:connector-curvature="0"
       id="path834"
       d="M -0.0077509,21.992248 A 28.909288,24.999984 0 0 0 24.992252,34.499999 28.909288,24.999984 0 0 0 49.992249,22.008775 28.909288,24.999984 0 0 0 24.992252,9.4999991 28.909288,24.999984 0 0 0 -0.0077509,21.992248 Z"
       style="opacity:1;fill:#ff1420;fill-opacity:0.60784316;stroke:none;stroke-width:0.21506929;stroke-linecap:butt;stroke-linejoin:miter;stroke-miterlimit:4;stroke-dasharray:none;stroke-opacity:1" />
    <path
       inkscape:connector-curvature="0"
       id="path836"
       d="M 7.3200603,4.3168489 A 28.909288,24.999984 45 0 0 16.153416,30.838836 28.909288,24.999984 45 0 0 42.663713,39.683874 28.909288,24.999984 45 0 0 33.831086,13.161166 28.909288,24.999984 45 0 0 7.3200603,4.3168489 Z"
       style="opacity:1;fill:#59ff93;fill-opacity:0.8627451;stroke:none;stroke-width:0.21506929;stroke-linecap:butt;stroke-linejoin:miter;stroke-miterlimit:4;stroke-dasharray:none;stroke-opacity:1" />
    <path
       style="opacity:1;fill:#ffd720;fill-opacity:0.86253369;stroke:none;stroke-width:0.21506929;stroke-linecap:butt;stroke-linejoin:miter;stroke-miterlimit:4;stroke-dasharray:none;stroke-opacity:1"
       d="M 7.3090987,39.672188 A 24.999984,28.909288 45 0 0 33.831086,30.838832 24.999984,28.909288 45 0 0 42.676124,4.3285351 24.999984,28.909288 45 0 0 16.153416,13.161162 24.999984,28.909288 45 0 0 7.3090987,39.672188 Z"
       id="path838"
       inkscape:connector-curvature="0" />
    <path
       inkscape:connector-curvature="0"
       id="path852"
       d="M 42.663713,39.683874 A 28.909288,24.999984 45 0 0 51.497069,66.205861 28.909288,24.999984 45 0 0 78.007366,75.050899 28.909288,24.999984 45 0 0 69.174739,48.528191 28.909288,24.999984 45 0 0 42.663713,39.683874 Z"
       style="opacity:1;fill:#ff7701;fill-opacity:0.8627451;stroke:none;stroke-width:0.21506929;stroke-linecap:butt;stroke-linejoin:miter;stroke-miterlimit:4;stroke-dasharray:none;stroke-opacity:1" />
    <path
       style="opacity:1;fill:#ff1420;fill-opacity:0.60784316;stroke:none;stroke-width:0.21506929;stroke-linecap:butt;stroke-linejoin:miter;stroke-miterlimit:4;stroke-dasharray:none;stroke-opacity:1"
       d="M 42.652752,75.039213 A 24.999984,28.909288 45 0 0 69.174739,66.205857 24.999984,28.909288 45 0 0 78.019777,39.69556 24.999984,28.909288 45 0 0 51.497069,48.528187 24.999984,28.909288 45 0 0 42.652752,75.039213 Z"
       id="path854"
       inkscape:connector-curvature="0" />
    <path
       style="opacity:1;fill:#59ff93;fill-opacity:0.8627451;stroke:none;stroke-width:0.21506929;stroke-linecap:butt;stroke-linejoin:miter;stroke-miterlimit:4;stroke-dasharray:none;stroke-opacity:1"
       d="M 35.335902,57.359273 A 28.909288,24.999984 0 0 0 60.335905,69.867024 28.909288,24.999984 0 0 0 85.335902,57.3758 28.909288,24.999984 0 0 0 60.335905,44.867024 28.909288,24.999984 0 0 0 35.335902,57.359273 Z"
       id="path856"
       inkscape:connector-curvature="0" />
    <path
       inkscape:connector-curvature="0"
       id="path858"
       d="M 60.328151,82.367024 A 28.909288,24.999984 90 0 0 72.835902,57.367021 28.909288,24.999984 90 0 0 60.344678,32.367024 28.909288,24.999984 90 0 0 47.835902,57.367021 28.909288,24.999984 90 0 0 60.328151,82.367024 Z"
       style="opacity:1;fill:#ffd720;fill-opacity:0.86253369;stroke:none;stroke-width:0.21506929;stroke-linecap:butt;stroke-linejoin:miter;stroke-miterlimit:4;stroke-dasharray:none;stroke-opacity:1" />
    <path
       style="opacity:1;fill:#ff7701;fill-opacity:0.8627451;stroke:none;stroke-width:0.21506929;stroke-linecap:butt;stroke-linejoin:miter;stroke-miterlimit:4;stroke-dasharray:none;stroke-opacity:1"
       d="M 35.359274,-13.351405 A 28.909288,24.999984 0 0 0 60.359277,-0.843654 28.909288,24.999984 0 0 0 85.359274,-13.334878 28.909288,24.999984 0 0 0 60.359277,-25.843654 28.909288,24.999984 0 0 0 35.359274,-13.351405 Z"
       id="path862"
       inkscape:connector-curvature="0" />
    <path
       inkscape:connector-curvature="0"
       id="path864"
       d="M 60.351523,11.656346 A 24.999984,28.909288 0 0 0 72.859274,-13.343657 24.999984,28.909288 0 0 0 60.36805,-38.343654 24.999984,28.909288 0 0 0 47.859274,-13.343657 24.999984,28.909288 0 0 0 60.351523,11.656346 Z"
       style="opacity:1;fill:#ff1420;fill-opacity:0.60784316;stroke:none;stroke-width:0.21506929;stroke-linecap:butt;stroke-linejoin:miter;stroke-miterlimit:4;stroke-dasharray:none;stroke-opacity:1" />
    <path
       inkscape:connector-curvature="0"
       id="path866"
       d="M 42.676124,4.3285347 A 24.999984,28.909288 45 0 0 69.198111,-4.504821 24.999984,28.909288 45 0 0 78.043149,-31.015118 24.999984,28.909288 45 0 0 51.520441,-22.182491 24.999984,28.909288 45 0 0 42.676124,4.3285347 Z"
       style="opacity:1;fill:#59ff93;fill-opacity:0.8627451;stroke:none;stroke-width:0.21506929;stroke-linecap:butt;stroke-linejoin:miter;stroke-miterlimit:4;stroke-dasharray:none;stroke-opacity:1" />
    <path
       style="opacity:1;fill:#ffd720;fill-opacity:0.86253369;stroke:none;stroke-width:0.21506929;stroke-linecap:butt;stroke-linejoin:miter;stroke-miterlimit:4;stroke-dasharray:none;stroke-opacity:1"
       d="M 78.031463,4.3394963 A 28.909288,24.999984 45 0 0 69.198107,-22.182491 28.909288,24.999984 45 0 0 42.68781,-31.027529 28.909288,24.999984 45 0 0 51.520437,-4.504821 28.909288,24.999984 45 0 0 78.031463,4.3394963 Z"
       id="path868"
       inkscape:connector-curvature="0" />
    <path
       inkscape:connector-curvature="0"
       id="path872"
       d="m -35.351404,-13.374777 a 28.909288,24.999984 0 0 0 25.000003,12.507751 28.909288,24.999984 0 0 0 24.999997,-12.491224 28.909288,24.999984 0 0 0 -24.999997,-12.508776 28.909288,24.999984 0 0 0 -25.000003,12.492249 z"
       style="opacity:1;fill:#ff7701;fill-opacity:0.8627451;stroke:none;stroke-width:0.21506929;stroke-linecap:butt;stroke-linejoin:miter;stroke-miterlimit:4;stroke-dasharray:none;stroke-opacity:1" />
    <path
       style="opacity:1;fill:#ff1420;fill-opacity:0.60646898;stroke:none;stroke-width:0.21506929;stroke-linecap:butt;stroke-linejoin:miter;stroke-miterlimit:4;stroke-dasharray:none;stroke-opacity:1"
       d="m -10.359155,11.632974 a 24.999984,28.909288 0 0 0 12.507751,-25.000003 24.999984,28.909288 0 0 0 -12.491224,-24.999997 24.999984,28.909288 0 0 0 -12.508776,24.999997 24.999984,28.909288 0 0 0 12.492249,25.000003 z"
       id="path874"
       inkscape:connector-curvature="0" />
    <path
       style="opacity:1;fill:#59ff93;fill-opacity:0.8627451;stroke:none;stroke-width:0.21506929;stroke-linecap:butt;stroke-linejoin:miter;stroke-miterlimit:4;stroke-dasharray:none;stroke-opacity:1"
       d="M -28.034554,4.3051627 A 24.999984,28.909288 45 0 0 -1.512567,-4.528193 24.999984,28.909288 45 0 0 7.332471,-31.03849 24.999984,28.909288 45 0 0 -19.190237,-22.205863 24.999984,28.909288 45 0 0 -28.034554,4.3051627 Z"
       id="path876"
       inkscape:connector-curvature="0" />
    <path
       inkscape:connector-curvature="0"
       id="path878"
       d="m 7.320785,4.3161243 a 28.909288,24.999984 45 0 0 -8.833356,-26.5219873 28.909288,24.999984 45 0 0 -26.510297,-8.845038 28.909288,24.999984 45 0 0 8.832627,26.522708 28.909288,24.999984 45 0 0 26.511026,8.8443173 z"
       style="opacity:1;fill:#ffd720;fill-opacity:0.86253369;stroke:none;stroke-width:0.21506929;stroke-linecap:butt;stroke-linejoin:miter;stroke-miterlimit:4;stroke-dasharray:none;stroke-opacity:1" />
    <path
       style="opacity:1;fill:#ff7701;fill-opacity:0.8627451;stroke:none;stroke-width:0.21506929;stroke-linecap:butt;stroke-linejoin:miter;stroke-miterlimit:4;stroke-dasharray:none;stroke-opacity:1"
       d="M -28.046964,39.660502 A 28.909288,24.999984 45 0 0 -19.213608,66.182489 28.909288,24.999984 45 0 0 7.2966882,75.027527 28.909288,24.999984 45 0 0 -1.5359389,48.50482 28.909288,24.999984 45 0 0 -28.046964,39.660502 Z"
       id="path882"
       inkscape:connector-curvature="0" />
    <path
       inkscape:connector-curvature="0"
       id="path884"
       d="M -28.057926,75.015841 A 24.999984,28.909288 45 0 0 -1.5359389,66.182485 24.999984,28.909288 45 0 0 7.3090993,39.672188 24.999984,28.909288 45 0 0 -19.213608,48.504815 24.999984,28.909288 45 0 0 -28.057926,75.015841 Z"
       style="opacity:1;fill:#ff1420;fill-opacity:0.60784316;stroke:none;stroke-width:0.21506929;stroke-linecap:butt;stroke-linejoin:miter;stroke-miterlimit:4;stroke-dasharray:none;stroke-opacity:1" />
    <path
       inkscape:connector-curvature="0"
       id="path886"
       d="M -35.374776,57.335901 A 28.909288,24.999984 0 0 0 -10.374773,69.843652 28.909288,24.999984 0 0 0 14.625224,57.352428 28.909288,24.999984 0 0 0 -10.374773,44.843652 28.909288,24.999984 0 0 0 -35.374776,57.335901 Z"
       style="opacity:1;fill:#59ff93;fill-opacity:0.8627451;stroke:none;stroke-width:0.21506929;stroke-linecap:butt;stroke-linejoin:miter;stroke-miterlimit:4;stroke-dasharray:none;stroke-opacity:1" />
    <path
       style="opacity:1;fill:#ffd720;fill-opacity:0.86253369;stroke:none;stroke-width:0.21506929;stroke-linecap:butt;stroke-linejoin:miter;stroke-miterlimit:4;stroke-dasharray:none;stroke-opacity:1"
       d="M -10.382527,82.343652 A 28.909288,24.999984 90 0 0 2.1252246,57.343649 28.909288,24.999984 90 0 0 -10.366,32.343652 28.909288,24.999984 90 0 0 -22.874776,57.343649 28.909288,24.999984 90 0 0 -10.382527,82.343652 Z"
       id="path888"
       inkscape:connector-curvature="0" />
  </g>
</svg>
