<?xml version="1.0" encoding="UTF-8" standalone="no"?>
<!-- Created with Inkscape (http://www.inkscape.org/) -->

<svg
   xmlns:dc="http://purl.org/dc/elements/1.1/"
   xmlns:cc="http://creativecommons.org/ns#"
   xmlns:rdf="http://www.w3.org/1999/02/22-rdf-syntax-ns#"
   xmlns:svg="http://www.w3.org/2000/svg"
   xmlns="http://www.w3.org/2000/svg"
   xmlns:sodipodi="http://sodipodi.sourceforge.net/DTD/sodipodi-0.dtd"
   xmlns:inkscape="http://www.inkscape.org/namespaces/inkscape"
   width="78.710876mm"
   height="78.710876mm"
   viewBox="0 0 78.710876 78.710876"
   version="1.1"
   id="svg842"
   inkscape:version="0.92.4 (5da689c313, 2019-01-14)"
   sodipodi:docname="doradztwoikonatlo.svg"
   inkscape:export-filename="C:\Users\jakub\Documents\strona_arkadiusza\img\doradztwoikona.png"
   inkscape:export-xdpi="66"
   inkscape:export-ydpi="66">
  <defs
     id="defs836">
    <clipPath
       clipPathUnits="userSpaceOnUse"
       id="clipPath3510">
      <circle
         style="opacity:1;fill:#cccccc;fill-opacity:1;stroke:none;stroke-width:0.1;stroke-linecap:butt;stroke-linejoin:miter;stroke-miterlimit:4;stroke-dasharray:none;stroke-opacity:1"
         id="circle3512"
         cx="90.537552"
         cy="171.98465"
         r="39.355438" />
    </clipPath>
  </defs>
  <sodipodi:namedview
     id="base"
     pagecolor="#ffffff"
     bordercolor="#666666"
     borderopacity="1.0"
     inkscape:pageopacity="0.0"
     inkscape:pageshadow="2"
     inkscape:zoom="0.7"
     inkscape:cx="225.24049"
     inkscape:cy="255.92343"
     inkscape:document-units="mm"
     inkscape:current-layer="layer1"
     showgrid="false"
     inkscape:window-width="1920"
     inkscape:window-height="1017"
     inkscape:window-x="-8"
     inkscape:window-y="-8"
     inkscape:window-maximized="1"
     inkscape:pagecheckerboard="true"
     fit-margin-top="0"
     fit-margin-left="0"
     fit-margin-right="0"
     fit-margin-bottom="0" />
  <metadata
     id="metadata839">
    <rdf:RDF>
      <cc:Work
         rdf:about="">
        <dc:format>image/svg+xml</dc:format>
        <dc:type
           rdf:resource="http://purl.org/dc/dcmitype/StillImage" />
        <dc:title></dc:title>
      </cc:Work>
    </rdf:RDF>
  </metadata>
  <g
     inkscape:label="Layer 1"
     inkscape:groupmode="layer"
     id="layer1"
     transform="translate(-51.182114,-132.62921)">
    <g
       id="g3508"
       clip-path="url(#clipPath3510)">
      <circle
         r="117.92857"
         cy="108.21568"
         cx="130.08293"
         id="path1389"
         style="opacity:1;fill:#00d455;fill-opacity:1;stroke:none;stroke-width:0.34666666;stroke-linecap:butt;stroke-linejoin:miter;stroke-miterlimit:4;stroke-dasharray:none;stroke-opacity:1" />
      <circle
         style="opacity:1;fill:#2aff80;fill-opacity:1;stroke:none;stroke-width:0.34666666;stroke-linecap:butt;stroke-linejoin:miter;stroke-miterlimit:4;stroke-dasharray:none;stroke-opacity:1"
         id="circle1391"
         cx="140.08293"
         cy="98.215675"
         r="117.92857" />
      <circle
         r="117.92857"
         cy="88.215675"
         cx="150.08293"
         id="circle1393"
         style="opacity:1;fill:#55ff99;fill-opacity:1;stroke:none;stroke-width:0.34666666;stroke-linecap:butt;stroke-linejoin:miter;stroke-miterlimit:4;stroke-dasharray:none;stroke-opacity:1" />
      <circle
         style="opacity:1;fill:#80ffb3;fill-opacity:1;stroke:none;stroke-width:0.34666666;stroke-linecap:butt;stroke-linejoin:miter;stroke-miterlimit:4;stroke-dasharray:none;stroke-opacity:1"
         id="circle1395"
         cx="160.08293"
         cy="78.215675"
         r="117.92857" />
      <circle
         r="117.92857"
         cy="68.215675"
         cx="170.08293"
         id="circle1397"
         style="opacity:1;fill:#aaffcc;fill-opacity:1;stroke:none;stroke-width:0.34666666;stroke-linecap:butt;stroke-linejoin:miter;stroke-miterlimit:4;stroke-dasharray:none;stroke-opacity:1" />
      <circle
         style="opacity:1;fill:#d5ffe6;fill-opacity:1;stroke:none;stroke-width:0.34666666;stroke-linecap:butt;stroke-linejoin:miter;stroke-miterlimit:4;stroke-dasharray:none;stroke-opacity:1"
         id="circle1399"
         cx="180.08293"
         cy="58.215679"
         r="117.92857" />
    </g>
    <path
       style="opacity:1;fill:#ffffff;fill-opacity:1;stroke:none;stroke-width:1.21124518;stroke-linecap:butt;stroke-linejoin:miter;stroke-miterlimit:4;stroke-dasharray:none;stroke-opacity:1"
       d="m 72.677491,148.87045 c -0.784831,0 -1.416574,0.63199 -1.416574,1.41682 v 43.39501 c 0,0.78483 0.631743,1.41657 1.416574,1.41657 h 35.720129 c 0.78483,0 1.41657,-0.63174 1.41657,-1.41657 v -43.39501 c 0,-0.78483 -0.63174,-1.41682 -1.41657,-1.41682 z m 7.050174,4.01595 a 3.6272813,3.6272813 0 0 1 3.627455,3.62745 3.6272813,3.6272813 0 0 1 -1.591541,2.99787 h 0.129578 c 1.302004,0 2.350217,1.04821 2.350217,2.35022 v 1.48075 c 0,1.30201 -1.048213,2.35022 -2.350217,2.35022 h -4.182861 c -1.302004,0 -2.35022,-1.04821 -2.35022,-2.35022 v -1.48075 c 0,-1.2945 1.036449,-2.33701 2.328015,-2.349 a 3.6272813,3.6272813 0 0 1 -1.587638,-2.99909 3.6272813,3.6272813 0 0 1 3.627212,-3.62745 z m 13.586424,1.52687 c 1.329451,0 2.438801,0.44899 3.328034,1.34703 0.616304,0.6207 1.052168,1.48563 1.307498,2.59498 l -2.872441,0.19156 c -0.321355,-0.98608 -0.930935,-1.47905 -1.828975,-1.47905 -0.572284,0 -1.045567,0.19801 -1.419749,0.59421 -0.369777,0.39619 -0.55467,0.90033 -0.55467,1.51223 0,0.58989 0.182702,1.07848 0.548082,1.46587 0.365376,0.38298 0.827486,0.57443 1.386557,0.57443 0.567883,0 1.019056,-0.16933 1.35362,-0.5083 0.338964,-0.33896 0.539403,-0.82561 0.601032,-1.45952 l 2.806311,0.0727 c -0.184893,1.45271 -0.689031,2.57519 -1.512234,3.36757 -0.818801,0.79239 -1.888305,1.18866 -3.208949,1.18866 -1.342655,0 -2.467559,-0.44899 -3.374402,-1.34703 -0.902441,-0.90244 -1.353614,-2.02054 -1.353614,-3.35439 0,-1.34265 0.459919,-2.47193 1.379969,-3.38758 0.924452,-0.91564 2.06247,-1.37338 3.413931,-1.37338 z m 4.569397,0.22451 h 3.103534 l 0.82554,2.81289 0.91119,-2.81289 h 2.99128 l -3.92907,9.5285 z m -20.664415,14.65209 h 26.636719 c 0.78484,0 1.41683,0.54865 1.41683,1.23038 0,0.68172 -0.63199,1.23062 -1.41683,1.23062 H 77.219071 c -0.784831,0 -1.416575,-0.5489 -1.416575,-1.23062 0,-0.68173 0.631744,-1.23038 1.416575,-1.23038 z m 2.5e-4,4.45275 h 26.636719 c 0.78483,0 1.41658,0.5489 1.41658,1.23062 0,0.68173 -0.63175,1.23039 -1.41658,1.23039 H 77.219316 c -0.784832,0 -1.416576,-0.54866 -1.416576,-1.23039 0,-0.68172 0.631744,-1.23062 1.416576,-1.23062 z m 0,4.453 h 26.636719 c 0.78483,0 1.41658,0.54865 1.41658,1.23038 0,0.68172 -0.63175,1.23062 -1.41658,1.23062 H 77.219316 c -0.784832,0 -1.416576,-0.5489 -1.416576,-1.23062 0,-0.68173 0.631744,-1.23038 1.416576,-1.23038 z m 0,4.45275 h 26.636719 c 0.78483,0 1.41658,0.5489 1.41658,1.23062 0,0.68173 -0.63175,1.23039 -1.41658,1.23039 H 77.219316 c -0.784832,0 -1.416576,-0.54866 -1.416576,-1.23039 0,-0.68172 0.631744,-1.23062 1.416576,-1.23062 z m 0,4.45275 h 26.636719 c 0.78483,0 1.41658,0.54891 1.41658,1.23063 0,0.68172 -0.63175,1.23062 -1.41658,1.23062 H 77.219316 c -0.784832,0 -1.416576,-0.5489 -1.416576,-1.23062 0,-0.68172 0.631744,-1.23063 1.416576,-1.23063 z"
       id="rect3041"
       inkscape:connector-curvature="0" />
  </g>
</svg>
