<?xml version="1.0" encoding="UTF-8" standalone="no"?>
<!-- Created with Inkscape (http://www.inkscape.org/) -->

<svg
   xmlns:dc="http://purl.org/dc/elements/1.1/"
   xmlns:cc="http://creativecommons.org/ns#"
   xmlns:rdf="http://www.w3.org/1999/02/22-rdf-syntax-ns#"
   xmlns:svg="http://www.w3.org/2000/svg"
   xmlns="http://www.w3.org/2000/svg"
   xmlns:sodipodi="http://sodipodi.sourceforge.net/DTD/sodipodi-0.dtd"
   xmlns:inkscape="http://www.inkscape.org/namespaces/inkscape"
   width="81.642563mm"
   height="97.895836mm"
   viewBox="0 0 81.642563 97.895836"
   version="1.1"
   id="svg2496"
   inkscape:version="0.92.4 (5da689c313, 2019-01-14)"
   sodipodi:docname="doradztwoikona.svg">
  <defs
     id="defs2490" />
  <sodipodi:namedview
     id="base"
     pagecolor="#ffffff"
     bordercolor="#666666"
     borderopacity="1.0"
     inkscape:pageopacity="0.0"
     inkscape:pageshadow="2"
     inkscape:zoom="1.4"
     inkscape:cx="97.229178"
     inkscape:cy="137.91596"
     inkscape:document-units="mm"
     inkscape:current-layer="layer1"
     showgrid="false"
     inkscape:pagecheckerboard="true"
     inkscape:window-width="1920"
     inkscape:window-height="1017"
     inkscape:window-x="-8"
     inkscape:window-y="-8"
     inkscape:window-maximized="1"
     fit-margin-top="0"
     fit-margin-left="0"
     fit-margin-right="0"
     fit-margin-bottom="0" />
  <metadata
     id="metadata2493">
    <rdf:RDF>
      <cc:Work
         rdf:about="">
        <dc:format>image/svg+xml</dc:format>
        <dc:type
           rdf:resource="http://purl.org/dc/dcmitype/StillImage" />
        <dc:title></dc:title>
      </cc:Work>
    </rdf:RDF>
  </metadata>
  <g
     inkscape:label="Layer 1"
     inkscape:groupmode="layer"
     id="layer1"
     transform="translate(-64.256025,-84.577266)">
    <path
       style="opacity:1;fill:#ffffff;fill-opacity:1;stroke:none;stroke-width:9.69448853;stroke-linecap:butt;stroke-linejoin:miter;stroke-miterlimit:4;stroke-dasharray:none;stroke-opacity:1"
       d="m 254.19531,319.66211 c -6.28158,0 -11.33789,5.05826 -11.33789,11.33984 v 347.32227 c 0,6.28158 5.05631,11.33789 11.33789,11.33789 h 285.89453 c 6.28159,0 11.33789,-5.05631 11.33789,-11.33789 V 331.00195 c 0,-6.28158 -5.0563,-11.33984 -11.33789,-11.33984 z m 56.42774,32.14258 a 29.031808,29.031808 0 0 1 29.0332,29.0332 29.031808,29.031808 0 0 1 -12.73828,23.99414 h 1.03711 c 10.4209,0 18.81054,8.38965 18.81054,18.81055 v 11.85156 c 0,10.4209 -8.38964,18.81055 -18.81054,18.81055 h -33.47852 c -10.4209,0 -18.81054,-8.38965 -18.81054,-18.81055 v -11.85156 c 0,-10.36084 8.29546,-18.70484 18.63281,-18.80078 a 29.031808,29.031808 0 0 1 -12.70703,-24.00391 29.031808,29.031808 0 0 1 29.03125,-29.0332 z m 108.74218,12.2207 c 10.64056,0 19.51952,3.59358 26.63672,10.78125 4.93271,4.96796 8.42128,11.89064 10.46485,20.76953 l -22.99024,1.53321 c -2.57207,-7.89234 -7.45099,-11.8379 -14.63867,-11.8379 -4.58038,0 -8.36843,1.58484 -11.36328,4.75586 -2.95962,3.17105 -4.43945,7.20606 -4.43945,12.10352 0,4.72131 1.46232,8.63185 4.38672,11.73242 2.92436,3.06532 6.62297,4.59766 11.09765,4.59766 4.54516,0 8.15624,-1.35537 10.83399,-4.06836 2.71299,-2.71297 4.31726,-6.60798 4.81054,-11.68164 l 22.46094,0.58203 c -1.47981,11.62711 -5.51482,20.61108 -12.10352,26.95312 -6.55347,6.34208 -15.11349,9.51368 -25.68359,9.51368 -10.74625,0 -19.74966,-3.59358 -27.00781,-10.78125 -7.22291,-7.22291 -10.83399,-16.17186 -10.83399,-26.84766 0,-10.74626 3.68107,-19.78467 11.04493,-27.11328 7.39905,-7.32861 16.50746,-10.99219 27.32421,-10.99219 z m 36.57227,1.79688 h 24.83984 l 6.60743,22.51367 7.29296,-22.51367 h 23.94141 l -31.44726,76.26367 z M 290.54492,483.09375 h 213.19336 c 6.28159,0 11.33984,4.39132 11.33984,9.84766 0,5.45634 -5.05825,9.84961 -11.33984,9.84961 H 290.54492 c -6.28158,0 -11.33789,-4.39327 -11.33789,-9.84961 0,-5.45634 5.05631,-9.84766 11.33789,-9.84766 z m 0.002,35.63867 h 213.19335 c 6.28159,0 11.3379,4.39327 11.33789,9.84961 0,5.45634 -5.0563,9.84766 -11.33789,9.84766 H 290.54688 c -6.28159,0 -11.3379,-4.39132 -11.3379,-9.84766 0,-5.45634 5.05631,-9.84961 11.3379,-9.84961 z m 0,35.64063 h 213.19335 c 6.28159,0 11.3379,4.39131 11.33789,9.84765 0,5.45634 -5.0563,9.84961 -11.33789,9.84961 H 290.54688 c -6.28159,0 -11.3379,-4.39327 -11.3379,-9.84961 0,-5.45634 5.05631,-9.84765 11.3379,-9.84765 z m 0,35.63867 h 213.19335 c 6.28159,0 11.3379,4.39327 11.33789,9.84961 0,5.45634 -5.0563,9.84765 -11.33789,9.84765 H 290.54688 c -6.28159,0 -11.3379,-4.39131 -11.3379,-9.84765 0,-5.45634 5.05631,-9.84961 11.3379,-9.84961 z m 0,35.63867 h 213.19335 c 6.28159,0 11.3379,4.39327 11.33789,9.84961 0,5.45634 -5.0563,9.84961 -11.33789,9.84961 H 290.54688 c -6.28159,0 -11.3379,-4.39327 -11.3379,-9.84961 0,-5.45634 5.05631,-9.84961 11.3379,-9.84961 z"
       transform="scale(0.26458333)"
       id="rect3041"
       inkscape:connector-curvature="0" />
    <g
       aria-label="CV"
       style="font-style:normal;font-variant:normal;font-weight:bold;font-stretch:normal;font-size:28.63793564px;line-height:1.25;font-family:Arial;-inkscape-font-specification:'Arial Bold';letter-spacing:0px;word-spacing:0px;fill:#000000;fill-opacity:1;stroke:none;stroke-width:0.42956907"
       id="text3051" />
  </g>
</svg>
