<?xml version="1.0" encoding="UTF-8" standalone="no"?>
<!-- Created with Inkscape (http://www.inkscape.org/) -->

<svg
   xmlns:dc="http://purl.org/dc/elements/1.1/"
   xmlns:cc="http://creativecommons.org/ns#"
   xmlns:rdf="http://www.w3.org/1999/02/22-rdf-syntax-ns#"
   xmlns:svg="http://www.w3.org/2000/svg"
   xmlns="http://www.w3.org/2000/svg"
   xmlns:sodipodi="http://sodipodi.sourceforge.net/DTD/sodipodi-0.dtd"
   xmlns:inkscape="http://www.inkscape.org/namespaces/inkscape"
   width="167.02684mm"
   height="116.90519mm"
   viewBox="0 0 167.02684 116.90519"
   version="1.1"
   id="svg8"
   inkscape:version="0.92.4 (5da689c313, 2019-01-14)"
   sodipodi:docname="kola.svg"
   inkscape:export-filename="C:\xampp\htdocs\kwir\img\kola.png"
   inkscape:export-xdpi="60.068192"
   inkscape:export-ydpi="60.068192">
  <defs
     id="defs2">
    <clipPath
       clipPathUnits="userSpaceOnUse"
       id="clipPath1500">
      <path
         style="opacity:1;fill:#ac9393;fill-opacity:1;stroke:none;stroke-width:2.56500006;stroke-linecap:butt;stroke-linejoin:miter;stroke-miterlimit:4;stroke-dasharray:none;stroke-opacity:1"
         d="m -40.809759,85.536775 a 37.016828,37.016828 0 0 0 -4.955866,1.076561 l -1.603983,7.735033 a 30.201457,30.201457 0 0 0 -6.96785,4.103542 l -7.565644,-2.394744 a 37.016828,37.016828 0 0 0 -6.092664,8.069443 l 4.341416,6.61262 a 30.201457,30.201457 0 0 0 -2.035627,7.81654 l -7.030469,3.65 a 37.016828,37.016828 0 0 0 0.304676,5.06297 37.016828,37.016828 0 0 0 1.076486,4.95534 l 7.735036,1.60399 a 30.201457,30.201457 0 0 0 4.103684,6.96887 l -2.394304,7.56507 a 37.016828,37.016828 0 0 0 8.068934,6.09272 l 6.612615,-4.34141 a 30.201457,30.201457 0 0 0 7.816541,2.03563 l 3.649987,7.03046 a 37.016828,37.016828 0 0 0 5.062972,-0.30467 37.016828,37.016828 0 0 0 4.955799,-1.07708 l 1.60354,-7.73444 a 30.201457,30.201457 0 0 0 6.96887,-4.10369 l 7.5650698,2.3943 a 37.016828,37.016828 0 0 0 6.09214,-8.06936 l -4.3408301,-6.61218 a 30.201457,30.201457 0 0 0 2.0356301,-7.81653 l 7.0304699,-3.65 a 37.016828,37.016828 0 0 0 -0.30468005,-5.06297 37.016828,37.016828 0 0 0 -1.07707,-4.9558 l -7.73444985,-1.60354 a 30.201457,30.201457 0 0 0 -4.1036798,-6.96887 l 2.3942997,-7.565065 A 37.016828,37.016828 0 0 0 -17.66815,89.956854 l -6.61218,4.340831 A 30.201457,30.201457 0 0 0 -32.0968,92.262571 L -35.746791,85.2321 a 37.016828,37.016828 0 0 0 -5.062968,0.304675 z m 3.783515,27.402425 a 9.3544332,9.3544332 0 0 1 10.546014,7.98712 9.3544332,9.3544332 0 0 1 -7.98711,10.546 9.3544332,9.3544332 0 0 1 -10.546003,-7.9871 9.3544332,9.3544332 0 0 1 7.987099,-10.54602 z"
         id="path1502"
         inkscape:connector-curvature="0" />
    </clipPath>
    <clipPath
       clipPathUnits="userSpaceOnUse"
       id="clipPath867">
      <path
         style="opacity:1;fill:#00d455;fill-opacity:1;stroke:none;stroke-width:2.57163525;stroke-linecap:butt;stroke-linejoin:miter;stroke-miterlimit:4;stroke-dasharray:none;stroke-opacity:1"
         d="m -11.613954,61.198953 v 11.93829 H -26.387282 V 61.210839 a 15.501601,13.630746 0 0 0 -8.114821,11.969295 15.501601,13.630746 0 0 0 8.947079,12.335164 v 4.258655 48.619767 4.25917 a 15.501601,13.630746 0 0 0 -8.947079,12.33465 15.501601,13.630746 0 0 0 8.114821,11.98118 v -11.93829 h 14.773328 v 11.9264 a 15.501601,13.630746 0 0 0 8.1148305,-11.96929 15.501601,13.630746 0 0 0 -8.9470795,-12.33517 V 138.39372 89.773953 85.514781 A 15.501601,13.630746 0 0 0 -3.4991235,73.180134 15.501601,13.630746 0 0 0 -11.613954,61.198953 Z"
         id="path869"
         inkscape:connector-curvature="0" />
    </clipPath>
  </defs>
  <sodipodi:namedview
     id="base"
     pagecolor="#ffffff"
     bordercolor="#666666"
     borderopacity="1.0"
     inkscape:pageopacity="0.0"
     inkscape:pageshadow="2"
     inkscape:zoom="0.98994949"
     inkscape:cx="58.75134"
     inkscape:cy="179.67088"
     inkscape:document-units="mm"
     inkscape:current-layer="layer1"
     showgrid="false"
     showguides="true"
     inkscape:guide-bbox="true"
     inkscape:pagecheckerboard="true"
     fit-margin-top="0"
     fit-margin-left="0"
     fit-margin-right="0"
     fit-margin-bottom="0"
     inkscape:window-width="1920"
     inkscape:window-height="1017"
     inkscape:window-x="-8"
     inkscape:window-y="-8"
     inkscape:window-maximized="1"
     inkscape:snap-global="true" />
  <metadata
     id="metadata5">
    <rdf:RDF>
      <cc:Work
         rdf:about="">
        <dc:format>image/svg+xml</dc:format>
        <dc:type
           rdf:resource="http://purl.org/dc/dcmitype/StillImage" />
        <dc:title />
      </cc:Work>
    </rdf:RDF>
  </metadata>
  <g
     inkscape:label="Layer 1"
     inkscape:groupmode="layer"
     id="layer1"
     transform="translate(5.9882251,-50.353721)">
    <g
       transform="rotate(-45,101.20438,271.56396)"
       id="g895">
      <g
         id="g891"
         clip-path="url(#clipPath867)"
         transform="translate(187.08867,0.53453906)">
        <ellipse
           ry="78.978149"
           rx="70.425522"
           cy="84.806259"
           cx="-48.533875"
           id="ellipse887"
           style="opacity:1;fill:#2aff80;fill-opacity:1;stroke:none;stroke-width:5.93940878;stroke-linecap:butt;stroke-linejoin:miter;stroke-miterlimit:4;stroke-dasharray:none;stroke-opacity:1" />
        <ellipse
           ry="68.688271"
           rx="61.739262"
           cy="164.05167"
           cx="13.071746"
           id="ellipse889"
           style="opacity:1;fill:#80ffb3;fill-opacity:1;stroke:none;stroke-width:5.12189674;stroke-linecap:butt;stroke-linejoin:miter;stroke-miterlimit:4;stroke-dasharray:none;stroke-opacity:1" />
      </g>
      <rect
         style="opacity:1;fill:#00aa44;fill-opacity:0.40431267;stroke:none;stroke-width:1.83298886;stroke-linecap:butt;stroke-linejoin:miter;stroke-miterlimit:4;stroke-dasharray:none;stroke-opacity:1"
         id="rect893"
         width="6.6943512"
         height="57.137077"
         x="164.74088"
         y="86.049835" />
    </g>
    <g
       transform="rotate(45,144.40467,52.915733)"
       id="g885">
      <g
         id="g881"
         clip-path="url(#clipPath867)"
         transform="translate(187.08867,0.53453906)">
        <ellipse
           ry="78.978149"
           rx="70.425522"
           cy="84.806259"
           cx="-48.533875"
           id="ellipse877"
           style="opacity:1;fill:#2aff80;fill-opacity:1;stroke:none;stroke-width:5.93940878;stroke-linecap:butt;stroke-linejoin:miter;stroke-miterlimit:4;stroke-dasharray:none;stroke-opacity:1" />
        <ellipse
           ry="68.688271"
           rx="61.739262"
           cy="164.05167"
           cx="13.071746"
           id="ellipse879"
           style="opacity:1;fill:#80ffb3;fill-opacity:1;stroke:none;stroke-width:5.12189674;stroke-linecap:butt;stroke-linejoin:miter;stroke-miterlimit:4;stroke-dasharray:none;stroke-opacity:1" />
      </g>
      <rect
         style="opacity:1;fill:#00aa44;fill-opacity:0.40431267;stroke:none;stroke-width:1.83298886;stroke-linecap:butt;stroke-linejoin:miter;stroke-miterlimit:4;stroke-dasharray:none;stroke-opacity:1"
         id="rect883"
         width="6.6943512"
         height="57.137077"
         x="164.74088"
         y="86.049835" />
    </g>
    <g
       id="g875"
       transform="translate(-90.567061,-11.379771)">
      <g
         transform="translate(187.08867,0.53453906)"
         clip-path="url(#clipPath867)"
         id="g865">
        <ellipse
           style="opacity:1;fill:#2aff80;fill-opacity:1;stroke:none;stroke-width:5.93940878;stroke-linecap:butt;stroke-linejoin:miter;stroke-miterlimit:4;stroke-dasharray:none;stroke-opacity:1"
           id="path845"
           cx="-48.533875"
           cy="84.806259"
           rx="70.425522"
           ry="78.978149" />
        <ellipse
           style="opacity:1;fill:#80ffb3;fill-opacity:1;stroke:none;stroke-width:5.12189674;stroke-linecap:butt;stroke-linejoin:miter;stroke-miterlimit:4;stroke-dasharray:none;stroke-opacity:1"
           id="path847"
           cx="13.071746"
           cy="164.05167"
           rx="61.739262"
           ry="68.688271" />
      </g>
      <rect
         y="86.049835"
         x="164.74088"
         height="57.137077"
         width="6.6943512"
         id="rect843"
         style="opacity:1;fill:#00aa44;fill-opacity:0.40431267;stroke:none;stroke-width:1.83298886;stroke-linecap:butt;stroke-linejoin:miter;stroke-miterlimit:4;stroke-dasharray:none;stroke-opacity:1" />
    </g>
    <g
       id="g1498"
       clip-path="url(#clipPath1500)"
       transform="translate(90.3371,-0.53453906)">
      <ellipse
         ry="46.504898"
         rx="45.836723"
         cy="116.86034"
         cx="-41.025871"
         id="path1492"
         style="opacity:1;fill:#ff6600;fill-opacity:1;stroke:none;stroke-width:2.56500006;stroke-linecap:butt;stroke-linejoin:miter;stroke-miterlimit:4;stroke-dasharray:none;stroke-opacity:1" />
      <ellipse
         ry="45.703087"
         rx="44.767643"
         cy="151.33812"
         cx="-2.0045214"
         id="path1494"
         style="opacity:1;fill:#ff7f2a;fill-opacity:1;stroke:none;stroke-width:2.56500006;stroke-linecap:butt;stroke-linejoin:miter;stroke-miterlimit:4;stroke-dasharray:none;stroke-opacity:1" />
    </g>
    <path
       style="opacity:1;fill:#ff0000;fill-opacity:0.53638814;stroke:none;stroke-width:2.56500006;stroke-linecap:butt;stroke-linejoin:miter;stroke-miterlimit:4;stroke-dasharray:none;stroke-opacity:1"
       d="m 54.590052,105.90241 a 15.768902,15.768902 0 0 0 -15.76855,15.76855 15.768902,15.768902 0 0 0 15.76855,15.76906 15.768902,15.768902 0 0 0 15.76907,-15.76906 15.768902,15.768902 0 0 0 -15.76907,-15.76855 z m -0.34778,6.4208 a 9.3544331,9.3544331 0 0 1 9.6144,8.06824 9.3544331,9.3544331 0 0 1 -7.98711,10.54613 9.3544331,9.3544331 0 0 1 -10.54561,-7.98711 9.3544331,9.3544331 0 0 1 7.98711,-10.54613 9.3544331,9.3544331 0 0 1 0.93121,-0.0811 z"
       id="path1485"
       inkscape:connector-curvature="0" />
    <g
       transform="matrix(0.69626486,-0.11838112,0.11838112,0.69626486,122.10557,52.196138)"
       clip-path="url(#clipPath1500)"
       id="g1508">
      <ellipse
         style="opacity:1;fill:#ff6600;fill-opacity:1;stroke:none;stroke-width:2.56500006;stroke-linecap:butt;stroke-linejoin:miter;stroke-miterlimit:4;stroke-dasharray:none;stroke-opacity:1"
         id="ellipse1504"
         cx="-41.025871"
         cy="116.86034"
         rx="45.836723"
         ry="46.504898" />
      <ellipse
         style="opacity:1;fill:#ff7f2a;fill-opacity:1;stroke:none;stroke-width:2.56500006;stroke-linecap:butt;stroke-linejoin:miter;stroke-miterlimit:4;stroke-dasharray:none;stroke-opacity:1"
         id="ellipse1506"
         cx="-2.0045214"
         cy="151.33812"
         rx="44.767643"
         ry="45.703087" />
    </g>
    <path
       inkscape:connector-curvature="0"
       id="path1510"
       d="m 109.81629,130.53623 a 11.136896,11.136896 0 0 0 -9.11239,12.84578 11.136896,11.136896 0 0 0 12.84584,9.11275 11.136896,11.136896 0 0 0 9.11269,-12.8462 11.136896,11.136896 0 0 0 -12.84614,-9.11233 z m 0.51792,4.51175 a 6.6066332,6.6066332 0 0 1 7.6493,4.47947 6.6066332,6.6066332 0 0 1 -4.31268,8.28841 6.6066332,6.6066332 0 0 1 -8.28806,-4.31274 6.6066332,6.6066332 0 0 1 4.31267,-8.28843 6.6066332,6.6066332 0 0 1 0.63877,-0.16672 z"
       style="opacity:1;fill:#ff0000;fill-opacity:1;stroke:none;stroke-width:1.81154907;stroke-linecap:butt;stroke-linejoin:miter;stroke-miterlimit:4;stroke-dasharray:none;stroke-opacity:1" />
  </g>
</svg>
