<?xml version="1.0" encoding="UTF-8" standalone="no"?>
<!-- Created with Inkscape (http://www.inkscape.org/) -->

<svg
   xmlns:dc="http://purl.org/dc/elements/1.1/"
   xmlns:cc="http://creativecommons.org/ns#"
   xmlns:rdf="http://www.w3.org/1999/02/22-rdf-syntax-ns#"
   xmlns:svg="http://www.w3.org/2000/svg"
   xmlns="http://www.w3.org/2000/svg"
   xmlns:sodipodi="http://sodipodi.sourceforge.net/DTD/sodipodi-0.dtd"
   xmlns:inkscape="http://www.inkscape.org/namespaces/inkscape"
   width="141.94626mm"
   height="134.66772mm"
   viewBox="0 0 141.94626 134.66772"
   version="1.1"
   id="svg1557"
   inkscape:version="0.92.4 (5da689c313, 2019-01-14)"
   sodipodi:docname="li.svg"
   inkscape:export-filename="C:\Users\jakub\Documents\strona_arkadiuszav2\img\lio2.png"
   inkscape:export-xdpi="2.8630552"
   inkscape:export-ydpi="2.8630552">
  <defs
     id="defs1551" />
  <sodipodi:namedview
     id="base"
     pagecolor="#ffffff"
     bordercolor="#666666"
     borderopacity="1.0"
     inkscape:pageopacity="0.0"
     inkscape:pageshadow="2"
     inkscape:zoom="0.7"
     inkscape:cx="82.602039"
     inkscape:cy="335.97276"
     inkscape:document-units="mm"
     inkscape:current-layer="layer1"
     showgrid="false"
     inkscape:pagecheckerboard="true"
     fit-margin-top="0"
     fit-margin-left="0"
     fit-margin-right="0"
     fit-margin-bottom="0"
     inkscape:window-width="1920"
     inkscape:window-height="1017"
     inkscape:window-x="-8"
     inkscape:window-y="-8"
     inkscape:window-maximized="1" />
  <metadata
     id="metadata1554">
    <rdf:RDF>
      <cc:Work
         rdf:about="">
        <dc:format>image/svg+xml</dc:format>
        <dc:type
           rdf:resource="http://purl.org/dc/dcmitype/StillImage" />
        <dc:title></dc:title>
      </cc:Work>
    </rdf:RDF>
  </metadata>
  <g
     inkscape:label="Layer 1"
     inkscape:groupmode="layer"
     id="layer1"
     transform="translate(-40.907823,-73.183998)">
    <path
       style="fill:#fe7a0b;fill-opacity:1;stroke:none;stroke-width:0.11082266;stroke-linecap:butt;stroke-linejoin:miter;stroke-miterlimit:4;stroke-dasharray:none;stroke-opacity:1"
       d="m 154.32353,128.90297 a 42.81964,43.380745 0 0 1 0.17568,3.45819 42.81964,43.380745 0 0 1 -42.8196,43.38082 42.81964,43.380745 0 0 1 -23.493652,-7.13703 43.380745,42.81964 27.893649 0 0 23.009432,34.1612 43.380745,42.81964 27.893649 0 0 25.47133,4.79766 c 5.68968,-0.14102 19.17409,-3.66088 28.7414,-8.83306 10.0407,-5.42809 17.44596,-4.84881 17.44596,-4.84881 0,0 -4.52348,-6.02334 -5.29579,-18.10483 -0.76497,-11.96599 -5.36943,-26.46087 -8.34007,-30.91077 a 43.380745,42.81964 27.893649 0 0 -14.89469,-15.96337 z"
       id="path1505"
       inkscape:connector-curvature="0" />
    <path
       style="fill:#fe7a0b;fill-opacity:1;stroke:none;stroke-width:0.11082266;stroke-linecap:butt;stroke-linejoin:miter;stroke-miterlimit:4;stroke-dasharray:none;stroke-opacity:1"
       d="m 110.23628,73.183998 c 0,0 -2.95198,6.815905 -12.446772,13.150638 -9.04716,6.036046 -18.46654,16.307334 -21.25297,21.270014 a 42.81964,43.380745 0 0 0 -7.50912,21.54391 42.81964,43.380745 62.106351 0 1 3.47475,-2.07171 42.81964,43.380745 62.106351 0 1 58.373172,17.54983 42.81964,43.380745 62.106351 0 1 4.74183,23.68794 42.81964,43.380745 0 0 0 18.88204,-35.95336 42.81964,43.380745 0 0 0 -7.32152,-24.19437 C 144.63454,103.45958 133.9784,92.60878 123.76053,86.334636 113.44403,79.999903 110.23628,73.183998 110.23628,73.183998 Z"
       id="path1509"
       inkscape:connector-curvature="0" />
    <path
       style="fill:#fe7a0b;fill-opacity:1;stroke:none;stroke-width:0.11082266;stroke-linecap:butt;stroke-linejoin:miter;stroke-miterlimit:4;stroke-dasharray:none;stroke-opacity:1"
       d="m 92.073188,121.98811 a 42.81964,43.380745 62.106351 0 0 -19.57089,5.0886 42.81964,43.380745 62.106351 0 0 -17.958088,17.78961 c -2.970636,4.44989 -7.575603,18.94477 -8.340567,30.91077 -0.772345,12.08148 -5.29582,18.10483 -5.29582,18.10483 0,0 7.405264,-0.57928 17.445964,4.8488 9.567301,5.17218 23.051741,8.69204 28.741421,8.83306 a 42.81964,43.380745 62.106351 0 0 24.785562,-4.46484 43.380745,42.81964 27.893649 0 1 -0.68525,-0.33279 43.380745,42.81964 27.893649 0 1 -18.308422,-58.13962 43.380745,42.81964 27.893649 0 1 18.994172,-18.27382 42.81964,43.380745 62.106351 0 0 -19.808082,-4.3646 z"
       id="path1511"
       inkscape:connector-curvature="0" />
    <path
       style="fill:#fe7a0b;fill-opacity:1;stroke:none;stroke-width:0.11082266;stroke-linecap:butt;stroke-linejoin:miter;stroke-miterlimit:4;stroke-dasharray:none;stroke-opacity:1"
       d="m 154.32332,128.90311 a 42.81964,43.380745 0 0 1 0.17571,3.45821 42.81964,43.380745 0 0 1 -42.81961,43.38079 42.81964,43.380745 0 0 1 -5.08704,-0.34571 43.380745,42.81964 41.495529 0 0 46.33259,-11.84629 43.380745,42.81964 41.495529 0 0 10.59003,-26.73895 43.380745,42.81964 27.893649 0 0 -9.19168,-7.90805 z"
       id="path1513"
       inkscape:connector-curvature="0" />
  </g>
</svg>
