<?xml version="1.0" encoding="UTF-8" standalone="no"?>
<!-- Created with Inkscape (http://www.inkscape.org/) -->

<svg
   xmlns:dc="http://purl.org/dc/elements/1.1/"
   xmlns:cc="http://creativecommons.org/ns#"
   xmlns:rdf="http://www.w3.org/1999/02/22-rdf-syntax-ns#"
   xmlns:svg="http://www.w3.org/2000/svg"
   xmlns="http://www.w3.org/2000/svg"
   xmlns:sodipodi="http://sodipodi.sourceforge.net/DTD/sodipodi-0.dtd"
   xmlns:inkscape="http://www.inkscape.org/namespaces/inkscape"
   width="141.94626mm"
   height="134.66771mm"
   viewBox="0 0 141.94626 134.66771"
   version="1.1"
   id="svg1564"
   inkscape:version="0.92.4 (5da689c313, 2019-01-14)"
   sodipodi:docname="logofoot.svg"
   inkscape:export-filename="C:\xampp\htdocs\kwir\img\logofoot.png"
   inkscape:export-xdpi="21.4729"
   inkscape:export-ydpi="21.4729">
  <defs
     id="defs1558" />
  <sodipodi:namedview
     id="base"
     pagecolor="#ffffff"
     bordercolor="#666666"
     borderopacity="1.0"
     inkscape:pageopacity="0.0"
     inkscape:pageshadow="2"
     inkscape:zoom="0.98994949"
     inkscape:cx="35.110285"
     inkscape:cy="233.98167"
     inkscape:document-units="mm"
     inkscape:current-layer="layer1"
     showgrid="false"
     inkscape:pagecheckerboard="true"
     fit-margin-top="0"
     fit-margin-left="0"
     fit-margin-right="0"
     fit-margin-bottom="0"
     inkscape:window-width="1920"
     inkscape:window-height="1017"
     inkscape:window-x="-8"
     inkscape:window-y="-8"
     inkscape:window-maximized="1" />
  <metadata
     id="metadata1561">
    <rdf:RDF>
      <cc:Work
         rdf:about="">
        <dc:format>image/svg+xml</dc:format>
        <dc:type
           rdf:resource="http://purl.org/dc/dcmitype/StillImage" />
        <dc:title />
      </cc:Work>
    </rdf:RDF>
  </metadata>
  <g
     inkscape:label="Layer 1"
     inkscape:groupmode="layer"
     id="layer1"
     transform="translate(-39.395918,-80.743526)">
    <path
       style="fill:#e6e6e6;fill-opacity:1;stroke:none;stroke-width:0.41885731;stroke-linecap:butt;stroke-linejoin:miter;stroke-miterlimit:4;stroke-dasharray:none;stroke-opacity:1"
       d="M 428.6582 210.5918 A 161.83801 163.95872 0 0 1 429.32227 223.66211 A 161.83801 163.95872 0 0 1 267.48438 387.62109 A 161.83801 163.95872 0 0 1 178.68945 360.64648 A 163.95872 161.83801 27.893649 0 0 265.6543 489.75977 A 163.95872 161.83801 27.893649 0 0 361.92383 507.89258 C 383.42813 507.35966 434.39282 494.05621 470.55273 474.50781 C 508.50184 453.9922 536.49023 456.18164 536.49023 456.18164 C 536.49023 456.18164 519.39358 433.41619 516.47461 387.75391 C 513.58338 342.52812 496.18074 287.7443 484.95312 270.92578 A 163.95872 161.83801 27.893649 0 0 428.6582 210.5918 z M 430.28711 346.80469 C 434.7073 346.80469 434.7452 346.83552 435.55859 350.94727 C 436.26767 354.53279 436.77543 355.14703 439.33984 355.52344 C 440.96924 355.76268 442.31809 355.70029 442.33789 355.38281 C 442.35679 355.06571 443.4155 353.53319 444.6875 351.97852 C 446.96228 349.19822 447.05889 349.17715 450.65039 350.67773 C 454.51318 352.29171 454.94293 353.48831 453.25586 357.92578 C 452.33335 360.35205 452.56468 361.02753 455.20898 363.67188 C 458.01147 366.47436 458.44206 366.59672 461.84375 365.55273 C 466.43709 364.14301 467.80155 364.68379 469.39844 368.53906 C 470.60373 371.44888 470.50234 371.77851 467.66406 374.2168 C 464.89854 376.59238 464.72596 377.10716 465.55859 380.48047 C 466.36669 383.75475 466.89464 384.22872 470.38477 384.81836 C 474.23304 385.46851 474.30273 385.55681 474.30273 389.78516 C 474.30273 394.32433 473.32685 395.30469 468.80469 395.30469 C 467.15708 395.30469 466.18571 396.11416 465.50781 398.05469 C 464.67651 400.43458 464.95883 401.24015 467.60352 404.03711 C 470.46583 407.0644 470.56908 407.43617 469.24609 409.9082 C 467.42946 413.30252 465.72939 413.90461 461.9668 412.48438 C 459.42268 411.52407 458.61509 411.61523 457.0332 413.04688 C 455.18569 414.71879 455.15869 415.98896 456.84375 421.86133 C 457.30995 423.48607 456.66585 424.32654 453.77734 425.86133 L 450.12109 427.80469 L 447.46094 424.72461 C 445.35733 422.28742 444.28056 421.77333 442.30273 422.26758 C 440.35866 422.7534 439.60882 423.80567 438.93164 426.99805 C 438.19244 430.48296 437.60691 431.19499 435.05664 431.70508 C 430.0225 432.71191 429.57865 432.45727 428.4375 427.92578 C 427.55962 424.44025 426.81679 423.44519 424.80469 423.06055 C 422.84175 422.68524 421.66467 423.31695 419.53906 425.88477 L 416.80273 429.19336 L 413.30273 427.46094 C 409.76173 425.7086 409.59398 425.19743 410.78906 419.79883 C 411.36196 417.21091 411.01352 416.46819 408.28516 414.45117 C 405.51147 412.40048 404.63156 412.23241 401.22266 413.09766 C 397.43406 414.05932 397.27063 413.99031 395.13281 410.53125 L 392.93555 406.97461 L 396.18555 404.25977 C 399.10527 401.82231 399.3693 401.17544 398.75781 397.91602 C 398.2218 395.05896 397.51502 394.16485 395.43945 393.71289 C 390.26245 392.58557 390.17454 392.48518 390.49414 388.06445 C 390.79197 383.94379 390.92119 383.79444 394.48438 383.49805 C 397.67929 383.23235 398.25618 382.78886 398.83789 380.14062 C 399.40599 377.55392 399.03019 376.64936 396.36914 374.21875 C 393.31982 371.43362 393.27223 371.26352 394.75781 368.39062 C 396.80133 364.43894 397.36297 364.20501 401.62695 365.51367 C 404.73176 366.46657 405.57248 366.37096 407.2168 364.88281 C 408.99261 363.27572 409.03768 362.81027 407.77539 359.23242 L 406.40039 355.33203 L 409.96094 352.61523 L 413.52344 349.90039 L 416.16211 353.11133 C 420.28591 358.12884 424.1658 357.0781 425.20898 350.66016 C 425.8269 346.85897 425.89692 346.80469 430.28711 346.80469 z M 432.0957 360.53906 C 425.32585 360.39796 418.99663 362.87615 413.36719 367.9375 C 407.05659 373.61125 404.46305 378.46636 403.66406 386.11133 C 402.40616 398.1455 408.98087 409.91831 419.76367 414.93945 C 425.70135 417.7044 436.9838 418.17721 442.42969 415.88867 C 449.24021 413.0267 453.98126 408.63707 457.18555 402.22461 C 464.46015 387.66685 458.76654 370.06915 444.69922 363.62891 C 440.37799 361.65058 436.15762 360.62372 432.0957 360.53906 z M 431.76758 364.32227 C 445.52106 364.18732 456.71851 374.59863 456.73047 389.30469 C 456.74181 396.54146 455.05894 400.69753 449.93945 406.14258 C 443.42684 413.06936 433.25205 415.72362 424.30273 412.82812 C 411.39085 408.65046 404.46218 394.64738 408.51758 380.92188 C 410.14051 375.42905 418.42507 367.14441 423.91797 365.52148 C 426.58547 364.73335 429.22064 364.34726 431.76758 364.32227 z "
       transform="matrix(0.26458333,0,0,0.26458333,39.395918,80.743526)"
       id="path5234" />
    <path
       style="fill:#e6e6e6;fill-opacity:1;stroke:none;stroke-width:0.41885731;stroke-linecap:butt;stroke-linejoin:miter;stroke-miterlimit:4;stroke-dasharray:none;stroke-opacity:1"
       d="M 262.0293 0 C 262.0293 0 250.87212 25.760827 214.98633 49.703125 C 180.7923 72.516527 145.19155 111.3372 134.66016 130.09375 A 161.83801 163.95872 0 0 0 106.2793 211.51953 A 161.83801 163.95872 62.106351 0 1 119.41211 203.68945 A 161.83801 163.95872 62.106351 0 1 340.03516 270.01953 A 161.83801 163.95872 62.106351 0 1 357.95703 359.54883 A 161.83801 163.95872 0 0 0 429.32227 223.66211 A 161.83801 163.95872 0 0 0 401.65039 132.21875 C 392.03849 114.42742 351.76321 73.416433 313.14453 49.703125 C 274.15304 25.760827 262.0293 -5.6843419e-14 262.0293 0 z M 286.01367 56.314453 L 289.01367 56.554688 L 289.29492 68.751953 C 289.55949 80.263544 289.45778 81.014931 287.47852 82.074219 C 284.78432 83.516109 280.51367 80.971753 280.51367 77.923828 C 280.51367 76.247041 279.62044 76.831177 275.95312 80.910156 C 266.74234 91.154792 249.99605 103.77209 236.78906 110.41797 C 229.03248 114.32116 225.46966 114.909 223.55469 112.60156 C 221.32749 109.91806 223.37528 107.47143 230.54883 104.24609 C 239.05481 100.42163 252.0336 91.976356 259.58789 85.351562 C 265.83726 79.871134 275.87204 69.077113 275.27344 68.478516 C 275.05876 68.263914 273.43913 68.634481 271.67383 69.300781 C 267.72282 70.792179 265.01367 69.432534 265.01367 65.957031 C 265.01367 63.904831 266.25226 63.060272 274.01367 59.826172 C 279.06826 57.720072 284.32887 56.180352 286.01367 56.314453 z M 284.48828 88.111328 C 285.99922 88.025084 287.45656 88.395972 288.31445 89.253906 C 289.18446 90.123916 289.51367 97.401648 289.51367 115.71875 C 289.51367 139.67385 289.41413 141.03799 287.58008 142.01953 C 284.69619 143.56294 282.02601 143.27557 280.16992 141.22461 C 278.7266 139.6298 278.51367 136.32492 278.51367 115.38086 C 278.51367 93.384274 278.66878 91.224802 280.34375 89.708984 C 281.4133 88.741047 282.97734 88.197572 284.48828 88.111328 z M 270.81055 100.07617 C 271.8316 100.07068 272.89304 100.26159 273.93164 100.66016 C 275.29994 101.18521 275.51367 103.92596 275.51367 120.96094 C 275.51367 134.9444 275.16636 141.00142 274.31445 141.85352 C 272.32548 143.84257 267.78531 143.28052 266.07031 140.83203 C 264.80444 139.02462 264.51367 135.31762 264.51367 120.98633 C 264.51367 105.18393 264.70393 103.19305 266.34375 101.70898 C 267.52157 100.64304 269.10879 100.08533 270.81055 100.07617 z M 257.37109 111.05469 C 262.09229 111.05469 262.51367 112.3679 262.51367 127.05469 C 262.51367 136.29911 262.13015 141.03782 261.31445 141.85352 C 259.52126 143.64675 255.04929 143.30135 253.16992 141.22461 C 251.8243 139.73771 251.51367 137.16239 251.51367 127.44727 C 251.51367 113.98644 252.56217 111.05469 257.37109 111.05469 z M 243.88281 120.94727 C 246.18606 120.86887 248.43886 121.41175 248.9082 122.63477 C 250.03212 125.5636 249.56737 140.6006 248.31445 141.85352 C 246.49299 143.67506 241.04861 143.30051 239.16992 141.22461 C 237.24992 139.10297 236.81123 126.23501 238.54883 122.98828 C 239.22429 121.72622 241.57956 121.02566 243.88281 120.94727 z M 230.53906 133.55469 L 236.01367 133.55469 L 236.34375 137.00977 C 236.89224 142.77574 230.41995 145.22754 225.39453 141.1582 C 223.38004 139.527 223.19448 138.86505 224.05859 136.4082 C 224.9975 133.73842 225.41776 133.55469 230.53906 133.55469 z "
       transform="matrix(0.26458333,0,0,0.26458333,39.395918,80.743526)"
       id="path5238" />
    <path
       style="fill:#e6e6e6;fill-opacity:1;stroke:none;stroke-width:0.41885731;stroke-linecap:butt;stroke-linejoin:miter;stroke-miterlimit:4;stroke-dasharray:none;stroke-opacity:1"
       d="M 193.38086 184.45703 A 161.83801 163.95872 62.106351 0 0 119.41211 203.68945 A 161.83801 163.95872 62.106351 0 0 51.539062 270.92578 C 40.311447 287.74434 22.906812 342.52812 20.015625 387.75391 C 17.096507 433.41619 0 456.18164 0 456.18164 C 0 456.18164 27.988398 453.9922 65.9375 474.50781 C 102.09741 494.05617 153.0621 507.35966 174.56641 507.89258 A 161.83801 163.95872 62.106351 0 0 268.24414 491.01758 A 163.95872 161.83801 27.893649 0 1 265.6543 489.75977 A 163.95872 161.83801 27.893649 0 1 196.45703 270.01953 A 163.95872 161.83801 27.893649 0 1 268.24609 200.95312 A 161.83801 163.95872 62.106351 0 0 193.38086 184.45703 z M 104.32422 354.00195 C 108.14681 353.98451 112.00073 355.51415 114.76953 358.80469 C 119.23674 364.11364 119.34682 371.15716 115.0332 375.77344 L 112.80273 378.16016 L 116.91602 381.91211 C 121.71322 386.28721 126.12347 395.36403 126.98438 402.63281 L 127.58008 407.66016 L 104.3125 407.66016 L 81.044922 407.66016 L 81.736328 402.41016 C 82.73813 394.80117 86.898326 386.28726 91.841797 381.73047 C 96.002528 377.89527 96.06148 377.75351 94.197266 376.06641 C 91.171262 373.32791 89.841571 367.58402 91.248047 363.32227 C 93.216522 357.35782 98.737349 354.02745 104.32422 354.00195 z M 73.333984 369.66016 C 81.095962 369.66016 85.837363 377.59571 81.648438 383.57617 C 80.388834 385.37458 82.254353 386.35241 83.082031 387.67773 C 83.900753 388.98878 81.690589 390.95008 80.234375 395.62891 C 79.171269 399.0445 78.302734 403.14903 78.302734 404.75 C 78.302734 406.79684 77.783235 407.70591 76.552734 407.81445 C 72.688545 408.15537 59.361027 408.18107 58.365234 407.84961 L 58.365234 407.84766 C 55.531609 406.90311 59.204808 394.9655 63.841797 390.04883 C 66.999895 386.70024 67.18743 386.19065 65.816406 384.67578 C 64.967827 383.73808 64.302734 381.14797 64.302734 378.78516 C 64.302734 373.00894 67.617487 369.66016 73.333984 369.66016 z M 133.12109 369.66016 C 141.17958 369.66016 145.55122 377.18546 141.49023 384.06836 C 139.92041 386.72903 139.75798 387.62129 140.77539 388.01172 C 143.46377 389.04338 147.61647 395.88626 148.89648 401.39258 C 149.62329 404.51915 150.00124 407.29372 149.73633 407.55859 C 148.97615 408.31885 131.68196 408.70735 130.95508 407.98047 C 130.59602 407.62141 130.30273 405.90072 130.30273 404.1582 C 130.30273 402.41569 129.3855 398.20031 128.26562 394.78906 C 127.14579 391.37785 124.49752 388.15364 124.82422 387.625 C 125.15077 387.0964 126.71619 385.66277 125.85938 384.43945 C 125.00248 383.2161 124.30273 380.49517 124.30273 378.39258 C 124.30273 373.12584 127.8016 369.66016 133.12109 369.66016 z "
       transform="matrix(0.26458333,0,0,0.26458333,39.395918,80.743526)"
       id="path5240" />
    <path
       sodipodi:nodetypes="ccsccccscscsccscccscccccssscscsscscscccccccccsccccccccssssccscccsccccc"
       inkscape:connector-curvature="0"
       id="path5244"
       d="m 98.492588,176.45346 c -1.64499,-1.44431 -1.87865,-2.50737 -1.70561,-7.76012 0.23537,-7.1463 0.97721,-9.33371 3.438242,-10.13811 3.60174,-1.17727 4.0818,-1.43032 4.8148,-2.53795 l 0.71827,-1.08538 0.48212,1.07684 c 0.58944,1.31652 2.48478,2.79829 3.13452,2.45055 0.79859,-0.42739 3.4735,-3.41224 3.4735,-3.87597 0,-0.42652 0.0358,-0.42507 0.52917,0.0214 0.29104,0.26339 0.52917,0.62158 0.52917,0.79598 0,0.18862 0.77721,0.44322 1.91823,0.62839 2.6585,0.43143 4.38771,1.32196 5.30198,2.73047 1.49376,2.30127 2.83141,8.14846 2.83255,12.38162 0,2.84184 -0.45503,3.85818 -2.11526,4.71679 -1.04683,0.54139 -1.46225,0.60119 -3.43959,0.49517 -1.54154,-0.0827 -2.74531,-0.32188 -3.82696,-0.76054 l -1.57802,-0.63997 -1.48567,0.60009 c -1.74484,0.70478 -5.34863,1.31199 -9.2683,1.56164 l -2.797522,0.17819 -0.95562,-0.83906 z m 8.270432,-0.0302 c 1.86515,-0.29303 5.51405,-1.29556 5.6774,-1.55985 0.0556,-0.0899 -1.09755,-0.7856 -2.56246,-1.54597 -3.41046,-1.7702 -2.89261,-1.79246 0.80023,-0.0344 2.58059,1.22855 5.92815,2.62065 6.30182,2.62065 0.2077,0 -0.0488,-2.46055 -0.4468,-4.28594 -0.28578,-1.31074 -0.41839,-1.52169 -1.01458,-1.614 -0.37719,-0.0584 -0.0607,-0.12403 0.70324,-0.14584 0.76399,-0.0218 1.38906,-0.13221 1.38906,-0.24535 0,-0.47071 -0.85862,-1.38179 -1.30222,-1.38179 -0.65045,0 -1.92003,1.03239 -1.70249,1.3844 0.1883,0.30466 -1.00079,0.17949 -3.54372,-0.37304 l -1.38907,-0.30181 v -3.4967 c 0,-1.92319 -0.0747,-3.87018 -0.16597,-4.32665 -0.14211,-0.71043 -0.0344,-0.95407 0.74792,-1.69188 1.1102,-1.04704 1.07263,-1.78526 -0.0501,-0.98577 -0.88995,0.63368 -1.28706,0.66085 -2.03207,0.13902 -0.4816,-0.33732 -0.60302,-0.33979 -0.87033,-0.0177 -0.24844,0.29937 -0.17319,0.46438 0.37585,0.82413 0.66479,0.43557 0.67251,0.47116 0.24481,1.12392 -0.30374,0.46357 -0.53326,1.75405 -0.73493,4.13195 l -0.29326,3.45784 -1.64777,0.13229 c -1.83198,0.14709 -2.79623,0.82425 -3.13127,2.19902 -0.14642,0.60088 -0.0826,0.76961 0.33219,0.87807 0.37385,0.0978 0.49342,0.32711 0.43984,0.84369 -0.0404,0.39019 -0.12182,1.57263 -0.18076,2.62766 l -0.10719,1.91823 1.22142,-0.002 c 0.67181,-0.001 1.99536,-0.12359 2.94125,-0.27219 z m -1.91823,-4.92813 c 0.1819,-0.0734 0.47955,-0.0734 0.66146,0 0.1819,0.0734 0.0331,0.13346 -0.33073,0.13346 -0.36381,0 -0.51263,-0.06 -0.33073,-0.13346 z m 8.16276,-22.18206 c -0.10646,-0.7276 -0.28329,-1.96512 -0.3929,-2.75004 -0.26937,-1.92851 -0.76137,-2.28522 -3.43636,-2.49151 -3.68149,-0.28389 -4.51903,0.42305 -4.54871,3.83935 -0.0257,2.94646 -0.55851,1.2728 -0.60664,-1.90509 -0.0336,-2.2205 0.0316,-2.61114 0.55912,-3.35073 0.68379,-0.95863 2.50983,-1.92894 4.00843,-2.12994 1.38081,-0.18521 3.52018,0.55697 4.63429,1.6077 1.3195,1.24445 1.6247,2.66081 1.08402,5.03072 -0.23651,1.03673 -0.58251,2.24215 -0.76885,2.67871 l -0.33883,0.79375 z"
       style="fill:#e6e6e6;fill-opacity:1;stroke-width:0.26458332" />
    <g
       id="g5258"
       transform="matrix(0.26458333,0,0,0.26458333,234.29602,80.049207)"
       style="fill:#e6e6e6;fill-opacity:1">
      <path
         style="fill:#e6e6e6;fill-opacity:1;stroke:none;stroke-width:0.35067403;stroke-linecap:butt;stroke-linejoin:miter;stroke-miterlimit:4;stroke-dasharray:none;stroke-opacity:1"
         d="m -296.6623,390.90262 -7.9375,3.04832 -7.82227,-2.517 v 9.29795 0.0269 h 0.004 a 7.8755269,1.8909425 0 0 0 7.87109,1.86296 7.8755269,1.8909425 0 0 0 7.86914,-1.86296 h 0.0156 z"
         id="path5252"
         inkscape:connector-curvature="0" />
      <path
         inkscape:connector-curvature="0"
         id="path5254"
         d="m -317.78001,388.30325 13.7152,-6.0004 12.4294,5.1432 -12.96515,5.7861 z"
         style="fill:#e6e6e6;fill-opacity:1;stroke:none;stroke-width:1px;stroke-linecap:butt;stroke-linejoin:miter;stroke-opacity:1" />
      <path
         style="fill:#e6e6e6;fill-opacity:1;stroke:none;stroke-width:1px;stroke-linecap:butt;stroke-linejoin:miter;stroke-opacity:1"
         d="m -291.63541,387.44602 v 0 l -0.81713,0.0858 0.75724,7.21444 c 0,0 -0.51625,2.33967 -0.36598,3.77137 0.15028,1.4317 0.41499,4.67977 1.62066,4.55322 1.20565,-0.12655 0.93299,-3.44997 0.82226,-4.50491 -0.11072,-1.05493 -0.52287,-2.68432 -1.02991,-4.00576 -0.50704,-1.32144 -0.98714,-7.11413 -0.98714,-7.11413"
         id="path5256"
         inkscape:connector-curvature="0" />
    </g>
  </g>
</svg>
